<svg xmlns="http://www.w3.org/2000/svg" xml:space="preserve" style="fill-rule:evenodd;clip-rule:evenodd" viewBox="10 10 702.8 682"><path d="M359 10a47 47 0 0 0-18 4.6L96.8 131.3a46.4 46.4 0 0 0-25.2 31.5L11.2 425a46 46 0 0 0 9 39.2l169.1 210.3a46.9 46.9 0 0 0 36.5 17.5l271.2-.1c14.3 0 27.7-6.4 36.6-17.4l169-210.3a46 46 0 0 0 9-39.2l-60.3-262.3a46.4 46.4 0 0 0-25.3-31.4L381.6 14.6A47 47 0 0 0 359 10Z" style="fill:#326ce5;fill-rule:nonzero"/><path d="M361.4 99.3c8 0 14.6 7.3 14.6 16.3v4.1c-.1 5.2-1.3 9.2-2 14-1.2 10.1-2.2 18.6-1.6 26.5.6 3.9 2.9 5.4 4.8 7.3l.3 6.5A191.7 191.7 0 0 1 499 232.7l5.6-4c1.9 0 6 .7 8.9-1 6.5-4.4 12.5-10.5 19.7-17.8 3.3-3.5 5.7-6.9 9.7-10.2.8-.8 2.2-1.9 3.2-2.6 7-5.6 16.8-5 21.8 1.3s3.4 16-3.6 21.5c-1 .8-2.3 2-3.2 2.6-4.2 3.1-8 4.7-12.2 7.1-8.7 5.4-16 9.9-21.7 15.3-2.7 3-2.5 5.7-2.8 8.3l-5.1 4.6a189.3 189.3 0 0 1 30.4 131.7l6 1.7c1 1.5 3.2 5.1 6.2 6.3 7.6 2.4 16 3.3 26.3 4.3 4.8.4 9 .2 14 1.2l4.2 1c8.7 2 14.2 10 12.4 17.8-1.8 7.8-10.2 12.5-18.9 10.7h-.2l-.3-.2-3.7-.8c-5-1.3-8.7-3.3-13.2-5-9.6-3.5-17.7-6.4-25.5-7.5-4-.3-6 1.5-8.1 3l-6.3-1.1c-14 44-43.9 82.2-84.3 106 .7 1.8 1.9 5.3 2.4 6-.9 2.4-2.3 4.8-1.1 8.6 2.8 7.4 7.4 14.6 13 23.2 2.7 4 5.4 7 7.8 11.7l2 4c3.7 8 1 17.2-6.3 20.7s-16.3-.2-20.2-8.3l-1.8-3.7c-2.1-4.8-2.8-8.9-4.3-13.4-3.3-9.8-6-17.8-10-24.6-2.2-3.3-5-3.8-7.5-4.6l-3.1-5.6a189.8 189.8 0 0 1-135-.3l-3.3 6c-2.5.6-4.8 1.3-6.3 3-5.3 6.4-7.4 16.6-11.3 26.3-1.5 4.6-2.2 8.7-4.2 13.4l-1.8 3.7c-4 8.1-13 11.8-20.3 8.3-7.2-3.4-10-12.7-6.2-20.7l1.9-4c2.4-4.6 5.2-7.7 7.8-11.7 5.6-8.6 10.4-16.4 13.3-23.8.7-2.4-.4-5.8-1.3-8.2l2.6-6.4c-38.9-23-69.6-59.8-84.3-105.3l-6.4 1c-1.7-.9-5.1-3.1-8.4-2.9-7.8 1.1-15.8 4-25.5 7.5-4.5 1.7-8.1 3.7-13.1 5l-3.8.9h-.3l-.2.1c-8.7 1.9-17-2.9-18.9-10.7-1.8-7.8 3.8-15.7 12.4-17.8H116.8l4-1c5-1 9.2-.7 14-1.1 10.2-1 18.7-2 26.2-4.3 2.4-1 4.7-4.3 6.3-6.4l6.1-1.8a189.3 189.3 0 0 1 29.9-131.9l-4.7-4.2c-.3-1.8-.7-6-3-8.4-5.7-5.4-13-9.9-21.7-15.3-4.2-2.4-8-4-12.1-7-1-.7-2.1-1.7-3-2.5-.2 0-.2-.1-.3-.2-7-5.6-8.6-15.2-3.6-21.5a14 14 0 0 1 11.7-5.2c3.5.1 7 1.4 10.2 3.8l3.2 2.6c4 3.4 6.3 6.7 9.6 10.3 7.2 7.3 13.2 13.4 19.7 17.8 3.5 2 6.1 1.2 8.7.8l5.3 3.8a188.1 188.1 0 0 1 122-58.7l.4-6.2a16 16 0 0 0 4.7-7.5c.6-8-.4-16.4-1.6-26.6-.7-4.7-1.8-8.7-2-13.9V115.6c0-9 6.5-16.3 14.6-16.3Zm82 391.7a151 151 0 0 0 70-128 152 152 0 1 0-70 128Zm-184.8-58.6V316.8a25.5 25.5 0 0 1 10.3-20.5l77.1-57.9c4.5-3.4 9.6-5.1 15.4-5.1 5.8 0 11 1.7 15.4 5.1l77.1 57.9a25.3 25.3 0 0 1 10.3 20.6v115.5c0 7.1-2.5 13.2-7.5 18.2s-11.1 7.5-18.2 7.5H284.3c-7 0-13-2.5-18.1-7.5-5-5-7.6-11-7.6-18.2Zm37-91.2v16.5c0 9 7.4 16.4 16.4 16.4h98.8c9 0 16.5-7.4 16.5-16.4v-16.5c0-9-7.4-16.5-16.5-16.5H312c-9 0-16.5 7.5-16.5 16.5Zm115.2 8.2c0 4.5-3.7 8.3-8.2 8.3a8.3 8.3 0 0 1-8.2-8.3c0-4.5 3.7-8.2 8.2-8.2 4.5 0 8.2 3.7 8.2 8.2Zm-115.3 57.7v16.4c0 9 7.5 16.5 16.5 16.5h98.8c9 0 16.5-7.4 16.5-16.5v-16.4c0-9-7.4-16.5-16.5-16.5H312c-9 0-16.5 7.4-16.5 16.5Zm115.3 8.2c0 4.5-3.7 8.2-8.2 8.2a8.3 8.3 0 0 1-8.2-8.2c0-4.5 3.7-8.2 8.2-8.2 4.5 0 8.2 3.7 8.2 8.2Z" style="fill:#fff;stroke:#fff;stroke-width:.25px"/></svg>
